<svg width="609" height="439" viewBox="0 0 609 439" fill="none" xmlns="http://www.w3.org/2000/svg">
<g clip-path="url(#clip0_288_583)">
<path d="M301.374 74.6305C311.561 74.6305 319.819 65.5237 319.819 54.29C319.819 43.0563 311.561 33.9496 301.374 33.9496C291.188 33.9496 282.93 43.0563 282.93 54.29C282.93 65.5237 291.188 74.6305 301.374 74.6305Z" fill="#FD6584"/>
<path d="M342.654 44.6585C342.134 42.7776 341.126 41.1055 339.755 39.848C338.384 38.5906 336.71 37.8027 334.938 37.5814C334.897 37.5776 334.855 37.5776 334.814 37.5814C334.764 37.5643 334.713 37.5516 334.662 37.5433C328.486 36.6597 321.62 38.8079 316.998 43.4853C315.283 45.1943 313.911 47.2807 312.971 49.6101C312.114 48.3197 310.985 47.279 309.682 46.5782C308.378 45.8773 306.939 45.5374 305.49 45.5879C303.62 45.7242 301.835 46.493 300.376 47.7894C298.917 49.0859 297.857 50.847 297.339 52.8325C297.282 53.0751 297.297 53.3315 297.383 53.5635C297.469 53.7955 297.621 53.9906 297.815 54.12C298.371 54.644 299.031 55.0148 299.742 55.2017C301.269 55.5597 302.81 55.8873 304.35 56.1844C307.362 56.7634 310.39 57.2331 313.434 57.5937C315.444 57.8299 317.459 58.0178 319.478 58.1575C323.65 58.4469 327.844 58.5155 332.023 58.3708C334.095 58.2946 336.085 58.2184 337.977 57.2128C339.357 56.4648 340.535 55.3331 341.397 53.9295C342.208 52.5794 342.741 51.0496 342.958 49.4478C343.175 47.8461 343.071 46.2113 342.654 44.6585Z" fill="#E6E6E6"/>
<path d="M304.709 74.2922C304.674 73.4399 304.544 72.5956 304.322 71.7783C303.8 69.8975 302.791 68.226 301.419 66.9688C300.047 65.7116 298.372 64.9235 296.599 64.7013C296.56 64.6974 296.521 64.6974 296.482 64.7013C296.43 64.6849 296.377 64.6722 296.323 64.6632C292.905 64.2015 289.437 64.5946 286.176 65.8135C281.16 67.6646 276.76 71.3974 274.64 76.73C273.782 75.4387 272.652 74.3975 271.347 73.6967C270.042 72.9958 268.602 72.6563 267.151 72.7077C265.282 72.844 263.496 73.6128 262.037 74.9093C260.579 76.2057 259.518 77.9668 259 79.9524C258.946 80.195 258.964 80.4501 259.049 80.6813C259.135 80.9125 259.284 81.108 259.477 81.2398C260.033 81.7623 260.693 82.133 261.404 82.3215C262.938 82.6796 264.471 83.0071 266.018 83.3042C269.03 83.8832 272.056 84.353 275.095 84.7136C281.27 85.4446 287.484 85.7042 293.691 85.4905C295.757 85.4144 297.753 85.3382 299.646 84.3327C301.023 83.5844 302.199 82.4526 303.058 81.0493C304.269 79.0593 304.85 76.6837 304.709 74.2922Z" fill="#E6E6E6"/>
<path d="M544.929 321.104C545.194 334.973 543.458 348.8 539.788 362.068C539.659 362.55 539.505 363.032 539.35 363.514H463.672C464.753 357.639 466.471 351.928 468.787 346.505C475.085 331.764 485.368 319.148 495.522 306.618C509.506 289.354 523.156 272.232 525.315 249.779C530.858 259.098 535.282 269.17 538.477 279.744C534.566 281.342 530.976 283.769 527.911 286.888C527.063 287.766 526.163 289.042 526.6 290.261C527.012 291.282 528.143 291.622 529.145 291.849C531.562 292.359 533.978 292.869 536.394 293.351C538.297 293.776 540.224 294.173 542.152 294.57C543.847 303.296 544.777 312.182 544.929 321.104Z" fill="#F2F2F2"/>
<path d="M608.5 311.92C596.367 320.056 588.655 332.642 582.357 346.731C576.876 348.109 571.817 351.041 567.679 355.236C566.804 356.115 565.905 357.391 566.368 358.61C566.753 359.63 567.91 359.97 568.912 360.197C571.303 360.707 573.745 361.218 576.136 361.7C575.905 362.295 575.673 362.919 575.442 363.514H495.239C498.88 358.099 502.911 353.017 507.295 348.319C508.246 347.27 509.223 346.278 510.225 345.257C520.449 335.068 532.189 326.897 544.929 321.104C564.999 311.852 586.946 308.681 608.5 311.92Z" fill="#F2F2F2"/>
<path d="M508.606 363.514H437.194C436.804 357.208 436.839 350.878 437.297 344.577C440.151 305.654 459.353 268.575 488.324 246.122C484.622 260.665 486.524 275.123 490.38 289.638C489.841 289.836 489.301 290.006 488.812 290.233C484.901 291.831 481.312 294.258 478.247 297.377C477.399 298.256 476.499 299.531 476.936 300.75C477.322 301.771 478.478 302.111 479.481 302.338C481.897 302.848 484.314 303.358 486.704 303.84C488.632 304.265 490.56 304.662 492.488 305.088C493.388 305.258 494.288 305.456 495.187 305.654C495.316 305.995 495.393 306.307 495.521 306.618C500.046 320.367 504.981 334.23 507.295 348.319C507.868 351.855 508.262 355.423 508.477 359.006C508.555 360.509 508.606 362.011 508.606 363.514Z" fill="#F2F2F2"/>
<path d="M119.406 321.104C119.671 334.973 117.936 348.8 114.265 362.068C114.136 362.55 113.982 363.032 113.828 363.514H38.1492C39.231 357.639 40.9485 351.928 43.2648 346.505C49.5627 331.764 59.8451 319.148 69.9991 306.618C83.9832 289.354 97.6332 272.232 99.7926 249.779C105.336 259.098 109.76 269.17 112.954 279.744C109.043 281.342 105.454 283.769 102.389 286.888C101.541 287.766 100.641 289.042 101.078 290.261C101.489 291.282 102.62 291.622 103.623 291.849C106.039 292.359 108.455 292.869 110.872 293.351C112.774 293.776 114.702 294.173 116.63 294.57C118.325 303.296 119.254 312.182 119.406 321.104Z" fill="#F2F2F2"/>
<path d="M182.977 311.92C170.844 320.056 163.132 332.642 156.834 346.731C151.354 348.109 146.294 351.041 142.156 355.236C141.282 356.115 140.382 357.391 140.845 358.61C141.231 359.63 142.388 359.97 143.39 360.197C145.781 360.707 148.223 361.218 150.613 361.7C150.382 362.295 150.151 362.919 149.919 363.514H69.7163C73.3571 358.099 77.389 353.017 81.7725 348.319C82.7236 347.27 83.7005 346.278 84.703 345.257C94.9269 335.068 106.666 326.897 119.406 321.104C139.476 311.852 161.423 308.681 182.977 311.92Z" fill="#F2F2F2"/>
<path d="M83.0835 363.514H11.6719C11.2819 357.208 11.3163 350.878 11.7748 344.577C14.6281 305.654 33.8305 268.575 62.8014 246.122C59.0997 260.665 61.0019 275.123 64.8578 289.638C64.3181 289.836 63.7782 290.006 63.2898 290.233C59.3789 291.831 55.7896 294.258 52.7246 297.377C51.8763 298.256 50.9766 299.531 51.4136 300.75C51.7991 301.771 52.9559 302.111 53.9584 302.338C56.3748 302.848 58.7912 303.358 61.1818 303.84C63.1098 304.265 65.0378 304.662 66.9657 305.088C67.8654 305.258 68.7652 305.456 69.6648 305.654C69.7933 305.995 69.8705 306.307 69.999 306.618C74.5233 320.367 79.4589 334.23 81.7725 348.319C82.3451 351.855 82.7399 355.423 82.955 359.006C83.0321 360.509 83.0835 362.011 83.0835 363.514Z" fill="#F2F2F2"/>
<path d="M348.938 330.45L412.746 336.697L413.43 336.766V36.5127C413.202 36.3375 412.974 36.1623 412.746 35.9871C399.447 25.7293 385.062 17.3024 369.91 10.8937L366.65 60.4864L366.353 65.0267L363.127 114.208L362.132 129.337L349.055 328.698L348.938 330.45Z" fill="#E6E6E6"/>
<path d="M191.142 30.9212C190.686 31.2411 190.231 31.5611 189.775 31.8963V336.766L191.142 336.629L254.259 330.451L254.142 328.698L241.065 129.337L240.071 114.208L236.845 65.0267L236.548 60.4864L233.128 8.47878C218.382 14.1156 204.29 21.6483 191.142 30.9212Z" fill="#E6E6E6"/>
<path d="M189.775 31.8963C188.856 32.5514 187.937 33.2218 187.032 33.8998V340.925C187.032 348.596 191.156 355.026 196.669 356.664C197.569 356.933 198.499 357.068 199.432 357.067H404.456C405.387 357.069 406.314 356.933 407.213 356.664C409.262 356.037 411.119 354.81 412.587 353.114C415.387 349.813 416.917 345.444 416.856 340.925V39.2399C415.723 38.3182 414.583 37.404 413.43 36.5127C413.202 36.3375 412.974 36.1623 412.746 35.9871V340.925C412.747 341.913 412.641 342.898 412.428 343.858C411.454 348.391 408.242 351.712 404.456 351.712H199.432C194.859 351.712 191.142 346.875 191.142 340.925V30.9212C190.686 31.2411 190.231 31.5611 189.775 31.8963Z" fill="#E6E6E6"/>
<path d="M414.801 60.4894H189.086V65.0289H414.801V60.4894Z" fill="#E6E6E6"/>
<path d="M345.671 2.58249C344.303 2.20921 342.935 1.85878 341.553 1.53121V124.797H345.671V2.58249Z" fill="#E6E6E6"/>
<path d="M262.335 0C260.96 0.281863 259.585 0.571347 258.218 0.883682V124.797H262.335V0Z" fill="#E6E6E6"/>
<path d="M144.832 349.122C144.831 351.727 145.284 354.308 146.165 356.725C146.504 357.662 146.908 358.569 147.374 359.437C147.976 360.569 148.675 361.635 149.461 362.621C151.196 364.802 153.333 366.549 155.73 367.746C158.127 368.943 160.728 369.562 163.359 369.561H433.669C438.583 369.561 443.296 367.408 446.77 363.577C450.244 359.745 452.196 354.548 452.196 349.13C452.196 343.711 450.244 338.514 446.77 334.683C443.296 330.851 438.583 328.698 433.669 328.698H163.359C158.448 328.704 153.74 330.857 150.266 334.686C146.793 338.514 144.839 343.706 144.832 349.122Z" fill="#E6E6E6"/>
<path d="M189.086 129.339L413.428 129.339V114.207L189.086 114.207V129.339Z" fill="#E6E6E6"/>
<path d="M310.862 117.99H291.652C291.652 115.783 292.447 113.666 293.863 112.105C295.278 110.544 297.197 109.668 299.199 109.668H303.315C304.306 109.668 305.288 109.883 306.203 110.301C307.119 110.719 307.951 111.332 308.652 112.105C309.352 112.878 309.908 113.795 310.288 114.805C310.667 115.815 310.862 116.897 310.862 117.99Z" fill="#E6E6E6"/>
<path d="M0.5 360.793C6.50101 368.634 12.9918 376.003 19.9248 382.847H577.097C584.03 376.003 590.521 368.634 596.522 360.793H0.5Z" fill="#3F3D56"/>
<path d="M274.527 287.043V365.173H324.16V287.043C324.16 286.482 323.998 285.934 323.696 285.482C323.394 285.029 322.968 284.695 322.481 284.53C322.252 284.446 322.011 284.405 321.77 284.408H276.924C276.609 284.407 276.298 284.475 276.007 284.607C275.717 284.739 275.453 284.933 275.23 285.178C275.007 285.423 274.831 285.713 274.71 286.033C274.589 286.354 274.527 286.697 274.527 287.043ZM293.896 313.889C293.91 312.349 294.474 310.877 295.466 309.793C296.458 308.709 297.798 308.101 299.195 308.101C300.591 308.101 301.931 308.709 302.924 309.793C303.916 310.877 304.48 312.349 304.493 313.889V322.954C304.486 324.499 303.925 325.977 302.932 327.067C301.939 328.156 300.595 328.768 299.195 328.768C297.794 328.768 296.451 328.156 295.458 327.067C294.465 325.977 293.904 324.499 293.896 322.954V313.889Z" fill="#2F2E41"/>
<path d="M274.375 362.674V370.208C274.376 370.599 274.517 370.973 274.766 371.249C275.016 371.526 275.354 371.683 275.708 371.686H322.979C323.333 371.684 323.672 371.528 323.922 371.251C324.172 370.974 324.312 370.599 324.312 370.208V362.674H274.375Z" fill="#3F3D56"/>
<path d="M196.448 169.331V311.985C196.449 313.803 197.104 315.546 198.27 316.831C199.436 318.117 201.016 318.839 202.665 318.841H394.357C396.006 318.839 397.586 318.117 398.752 316.831C399.917 315.546 400.573 313.803 400.574 311.985V169.331C400.57 167.515 399.914 165.774 398.748 164.491C397.583 163.207 396.004 162.485 394.357 162.483H202.665C201.018 162.485 199.439 163.207 198.273 164.491C197.108 165.774 196.452 167.515 196.448 169.331Z" fill="#3F3D56"/>
<path d="M200.945 171.106V310.225C200.946 311.196 201.297 312.127 201.919 312.814C202.542 313.501 203.386 313.887 204.267 313.889H392.761C393.642 313.887 394.486 313.501 395.109 312.814C395.732 312.127 396.082 311.196 396.084 310.225V171.106C396.084 170.134 395.734 169.201 395.111 168.513C394.488 167.824 393.643 167.437 392.761 167.434H204.267C203.385 167.437 202.54 167.824 201.917 168.513C201.295 169.201 200.945 170.134 200.945 171.106Z" fill="#5A8AE4"/>
<path d="M239.38 373.461C239.572 373.727 239.816 373.941 240.093 374.087C240.371 374.233 240.675 374.309 240.982 374.307H353.124C353.431 374.306 353.734 374.231 354.01 374.085C354.287 373.939 354.531 373.727 354.724 373.465C354.918 373.202 355.055 372.895 355.127 372.567C355.2 372.238 355.204 371.895 355.141 371.564L353.401 362.446C353.328 362.074 353.173 361.728 352.949 361.439C352.724 361.15 352.438 360.928 352.116 360.793C351.882 360.692 351.634 360.64 351.383 360.64H242.716C242.466 360.64 242.217 360.692 241.984 360.793C241.662 360.928 241.376 361.15 241.151 361.439C240.927 361.728 240.771 362.074 240.699 362.446L238.958 371.564C238.897 371.895 238.902 372.237 238.975 372.565C239.048 372.893 239.186 373.199 239.38 373.461Z" fill="#2F2E41"/>
<path d="M347.47 364.568H350.25C350.436 364.568 350.587 364.401 350.587 364.196V362.654C350.587 362.449 350.436 362.283 350.25 362.283H347.47C347.284 362.283 347.133 362.449 347.133 362.654V364.196C347.133 364.401 347.284 364.568 347.47 364.568Z" fill="#3F3D56"/>
<path d="M340.562 364.568H343.342C343.528 364.568 343.679 364.401 343.679 364.196V362.654C343.679 362.449 343.528 362.283 343.342 362.283H340.562C340.376 362.283 340.225 362.449 340.225 362.654V364.196C340.225 364.401 340.376 364.568 340.562 364.568Z" fill="#3F3D56"/>
<path d="M333.655 364.568H336.434C336.62 364.568 336.771 364.401 336.771 364.196V362.654C336.771 362.449 336.62 362.283 336.434 362.283H333.655C333.468 362.283 333.317 362.449 333.317 362.654V364.196C333.317 364.401 333.468 364.568 333.655 364.568Z" fill="#3F3D56"/>
<path d="M326.747 364.568H329.526C329.713 364.568 329.864 364.401 329.864 364.196V362.654C329.864 362.449 329.713 362.283 329.526 362.283H326.747C326.561 362.283 326.41 362.449 326.41 362.654V364.196C326.41 364.401 326.561 364.568 326.747 364.568Z" fill="#3F3D56"/>
<path d="M319.839 364.568H322.618C322.805 364.568 322.956 364.401 322.956 364.196V362.654C322.956 362.449 322.805 362.283 322.618 362.283H319.839C319.653 362.283 319.502 362.449 319.502 362.654V364.196C319.502 364.401 319.653 364.568 319.839 364.568Z" fill="#3F3D56"/>
<path d="M312.931 364.568H315.711C315.897 364.568 316.048 364.401 316.048 364.196V362.654C316.048 362.449 315.897 362.283 315.711 362.283H312.931C312.745 362.283 312.594 362.449 312.594 362.654V364.196C312.594 364.401 312.745 364.568 312.931 364.568Z" fill="#3F3D56"/>
<path d="M306.023 364.568H308.803C308.989 364.568 309.14 364.401 309.14 364.196V362.654C309.14 362.449 308.989 362.283 308.803 362.283H306.023C305.837 362.283 305.686 362.449 305.686 362.654V364.196C305.686 364.401 305.837 364.568 306.023 364.568Z" fill="#3F3D56"/>
<path d="M299.115 364.568H301.895C302.081 364.568 302.232 364.401 302.232 364.196V362.654C302.232 362.449 302.081 362.283 301.895 362.283H299.115C298.929 362.283 298.778 362.449 298.778 362.654V364.196C298.778 364.401 298.929 364.568 299.115 364.568Z" fill="#3F3D56"/>
<path d="M292.208 364.568H294.987C295.173 364.568 295.324 364.401 295.324 364.196V362.654C295.324 362.449 295.173 362.283 294.987 362.283H292.208C292.021 362.283 291.87 362.449 291.87 362.654V364.196C291.87 364.401 292.021 364.568 292.208 364.568Z" fill="#3F3D56"/>
<path d="M285.3 364.568H288.079C288.265 364.568 288.417 364.401 288.417 364.196V362.654C288.417 362.449 288.265 362.283 288.079 362.283H285.3C285.114 362.283 284.963 362.449 284.963 362.654V364.196C284.963 364.401 285.114 364.568 285.3 364.568Z" fill="#3F3D56"/>
<path d="M278.392 364.568H281.171C281.358 364.568 281.509 364.401 281.509 364.196V362.654C281.509 362.449 281.358 362.283 281.171 362.283H278.392C278.206 362.283 278.055 362.449 278.055 362.654V364.196C278.055 364.401 278.206 364.568 278.392 364.568Z" fill="#3F3D56"/>
<path d="M271.484 364.568H274.264C274.45 364.568 274.601 364.401 274.601 364.196V362.654C274.601 362.449 274.45 362.283 274.264 362.283H271.484C271.298 362.283 271.147 362.449 271.147 362.654V364.196C271.147 364.401 271.298 364.568 271.484 364.568Z" fill="#3F3D56"/>
<path d="M264.576 364.568H267.356C267.542 364.568 267.693 364.401 267.693 364.196V362.654C267.693 362.449 267.542 362.283 267.356 362.283H264.576C264.39 362.283 264.239 362.449 264.239 362.654V364.196C264.239 364.401 264.39 364.568 264.576 364.568Z" fill="#3F3D56"/>
<path d="M257.668 364.568H260.448C260.634 364.568 260.785 364.401 260.785 364.196V362.654C260.785 362.449 260.634 362.283 260.448 362.283H257.668C257.482 362.283 257.331 362.449 257.331 362.654V364.196C257.331 364.401 257.482 364.568 257.668 364.568Z" fill="#3F3D56"/>
<path d="M250.76 364.568H253.54C253.726 364.568 253.877 364.401 253.877 364.196V362.654C253.877 362.449 253.726 362.283 253.54 362.283H250.76C250.574 362.283 250.423 362.449 250.423 362.654V364.196C250.423 364.401 250.574 364.568 250.76 364.568Z" fill="#3F3D56"/>
<path d="M243.853 364.568H246.632C246.818 364.568 246.969 364.401 246.969 364.196V362.654C246.969 362.449 246.818 362.283 246.632 362.283H243.853C243.667 362.283 243.516 362.449 243.516 362.654V364.196C243.516 364.401 243.667 364.568 243.853 364.568Z" fill="#3F3D56"/>
<path d="M347.552 368.377H350.331C350.517 368.377 350.668 368.21 350.668 368.005V366.463C350.668 366.258 350.517 366.092 350.331 366.092H347.552C347.366 366.092 347.215 366.258 347.215 366.463V368.005C347.215 368.21 347.366 368.377 347.552 368.377Z" fill="#3F3D56"/>
<path d="M340.644 368.377H343.423C343.61 368.377 343.761 368.21 343.761 368.005V366.463C343.761 366.258 343.61 366.092 343.423 366.092H340.644C340.458 366.092 340.307 366.258 340.307 366.463V368.005C340.307 368.21 340.458 368.377 340.644 368.377Z" fill="#3F3D56"/>
<path d="M333.736 368.377H336.516C336.702 368.377 336.853 368.21 336.853 368.005V366.463C336.853 366.258 336.702 366.092 336.516 366.092H333.736C333.55 366.092 333.399 366.258 333.399 366.463V368.005C333.399 368.21 333.55 368.377 333.736 368.377Z" fill="#3F3D56"/>
<path d="M326.828 368.377H329.608C329.794 368.377 329.945 368.21 329.945 368.005V366.463C329.945 366.258 329.794 366.092 329.608 366.092H326.828C326.642 366.092 326.491 366.258 326.491 366.463V368.005C326.491 368.21 326.642 368.377 326.828 368.377Z" fill="#3F3D56"/>
<path d="M319.92 368.377H322.7C322.886 368.377 323.037 368.21 323.037 368.005V366.463C323.037 366.258 322.886 366.092 322.7 366.092H319.92C319.734 366.092 319.583 366.258 319.583 366.463V368.005C319.583 368.21 319.734 368.377 319.92 368.377Z" fill="#3F3D56"/>
<path d="M313.013 368.377H315.792C315.978 368.377 316.129 368.21 316.129 368.005V366.463C316.129 366.258 315.978 366.092 315.792 366.092H313.013C312.826 366.092 312.675 366.258 312.675 366.463V368.005C312.675 368.21 312.826 368.377 313.013 368.377Z" fill="#3F3D56"/>
<path d="M306.105 368.377H308.884C309.071 368.377 309.222 368.21 309.222 368.005V366.463C309.222 366.258 309.071 366.092 308.884 366.092H306.105C305.919 366.092 305.768 366.258 305.768 366.463V368.005C305.768 368.21 305.919 368.377 306.105 368.377Z" fill="#3F3D56"/>
<path d="M299.197 368.377H301.976C302.163 368.377 302.314 368.21 302.314 368.005V366.463C302.314 366.258 302.163 366.092 301.976 366.092H299.197C299.011 366.092 298.86 366.258 298.86 366.463V368.005C298.86 368.21 299.011 368.377 299.197 368.377Z" fill="#3F3D56"/>
<path d="M292.289 368.377H295.069C295.255 368.377 295.406 368.21 295.406 368.005V366.463C295.406 366.258 295.255 366.092 295.069 366.092H292.289C292.103 366.092 291.952 366.258 291.952 366.463V368.005C291.952 368.21 292.103 368.377 292.289 368.377Z" fill="#3F3D56"/>
<path d="M285.381 368.377H288.161C288.347 368.377 288.498 368.21 288.498 368.005V366.463C288.498 366.258 288.347 366.092 288.161 366.092H285.381C285.195 366.092 285.044 366.258 285.044 366.463V368.005C285.044 368.21 285.195 368.377 285.381 368.377Z" fill="#3F3D56"/>
<path d="M278.474 368.377H281.253C281.439 368.377 281.59 368.21 281.59 368.005V366.463C281.59 366.258 281.439 366.092 281.253 366.092H278.474C278.287 366.092 278.136 366.258 278.136 366.463V368.005C278.136 368.21 278.287 368.377 278.474 368.377Z" fill="#3F3D56"/>
<path d="M271.566 368.377H274.345C274.531 368.377 274.682 368.21 274.682 368.005V366.463C274.682 366.258 274.531 366.092 274.345 366.092H271.566C271.379 366.092 271.228 366.258 271.228 366.463V368.005C271.228 368.21 271.379 368.377 271.566 368.377Z" fill="#3F3D56"/>
<path d="M264.658 368.377H267.437C267.624 368.377 267.775 368.21 267.775 368.005V366.463C267.775 366.258 267.624 366.092 267.437 366.092H264.658C264.472 366.092 264.321 366.258 264.321 366.463V368.005C264.321 368.21 264.472 368.377 264.658 368.377Z" fill="#3F3D56"/>
<path d="M257.75 368.377H260.529C260.716 368.377 260.867 368.21 260.867 368.005V366.463C260.867 366.258 260.716 366.092 260.529 366.092H257.75C257.564 366.092 257.413 366.258 257.413 366.463V368.005C257.413 368.21 257.564 368.377 257.75 368.377Z" fill="#3F3D56"/>
<path d="M250.842 368.377H253.622C253.808 368.377 253.959 368.21 253.959 368.005V366.463C253.959 366.258 253.808 366.092 253.622 366.092H250.842C250.656 366.092 250.505 366.258 250.505 366.463V368.005C250.505 368.21 250.656 368.377 250.842 368.377Z" fill="#3F3D56"/>
<path d="M243.934 368.377H246.714C246.9 368.377 247.051 368.21 247.051 368.005V366.463C247.051 366.258 246.9 366.092 246.714 366.092H243.934C243.748 366.092 243.597 366.258 243.597 366.463V368.005C243.597 368.21 243.748 368.377 243.934 368.377Z" fill="#3F3D56"/>
<path d="M290.217 372.948H317.174C317.36 372.948 317.511 372.781 317.511 372.576V371.034C317.511 370.829 317.36 370.662 317.174 370.662H290.217C290.031 370.662 289.88 370.829 289.88 371.034V372.576C289.88 372.781 290.031 372.948 290.217 372.948Z" fill="#3F3D56"/>
<path d="M213.739 186.599H390.112C390.296 186.594 390.47 186.511 390.598 186.366C390.727 186.222 390.799 186.027 390.799 185.825C390.799 185.623 390.727 185.429 390.598 185.284C390.47 185.14 390.296 185.056 390.112 185.052H213.739C213.556 185.056 213.381 185.14 213.253 185.284C213.125 185.429 213.053 185.623 213.053 185.825C213.053 186.027 213.125 186.222 213.253 186.366C213.381 186.511 213.556 186.594 213.739 186.599Z" fill="#3F3D56"/>
<path d="M378.106 181.102C380.376 181.102 382.217 179.028 382.217 176.468C382.217 173.909 380.376 171.834 378.106 171.834C375.836 171.834 373.996 173.909 373.996 176.468C373.996 179.028 375.836 181.102 378.106 181.102Z" fill="#3F3D56"/>
<path d="M363.907 181.102C366.177 181.102 368.017 179.028 368.017 176.468C368.017 173.909 366.177 171.834 363.907 171.834C361.636 171.834 359.796 173.909 359.796 176.468C359.796 179.028 361.636 181.102 363.907 181.102Z" fill="#3F3D56"/>
<path d="M349.707 181.102C351.977 181.102 353.817 179.028 353.817 176.468C353.817 173.909 351.977 171.834 349.707 171.834C347.437 171.834 345.596 173.909 345.596 176.468C345.596 179.028 347.437 181.102 349.707 181.102Z" fill="#3F3D56"/>
<path d="M221.537 173.826C221.536 173.935 221.556 174.044 221.593 174.145C221.631 174.247 221.686 174.339 221.756 174.417C221.826 174.495 221.909 174.557 222.001 174.599C222.092 174.641 222.19 174.663 222.29 174.664H232.375C232.575 174.659 232.764 174.568 232.904 174.41C233.043 174.253 233.121 174.042 233.121 173.822C233.121 173.602 233.043 173.391 232.904 173.234C232.764 173.076 232.575 172.985 232.375 172.98H222.29C222.088 172.983 221.896 173.073 221.755 173.232C221.614 173.39 221.536 173.604 221.537 173.826Z" fill="#3F3D56"/>
<path d="M221.537 176.987C221.536 177.097 221.556 177.205 221.593 177.307C221.631 177.408 221.686 177.501 221.756 177.578C221.826 177.656 221.909 177.718 222.001 177.76C222.092 177.803 222.19 177.825 222.29 177.825H232.375C232.575 177.82 232.765 177.73 232.904 177.572C233.044 177.415 233.122 177.204 233.122 176.984C233.122 176.763 233.044 176.552 232.904 176.395C232.765 176.237 232.575 176.147 232.375 176.142H222.29C222.088 176.144 221.896 176.235 221.755 176.393C221.614 176.552 221.536 176.765 221.537 176.987Z" fill="#3F3D56"/>
<path d="M221.537 180.141C221.536 180.363 221.614 180.577 221.755 180.735C221.896 180.894 222.088 180.984 222.29 180.987H232.375C232.575 180.982 232.764 180.891 232.904 180.733C233.043 180.576 233.121 180.365 233.121 180.145C233.121 179.925 233.043 179.714 232.904 179.557C232.764 179.399 232.575 179.308 232.375 179.303H222.29C222.19 179.304 222.092 179.326 222.001 179.368C221.909 179.41 221.826 179.472 221.756 179.55C221.686 179.628 221.631 179.72 221.593 179.822C221.556 179.923 221.536 180.032 221.537 180.141Z" fill="#3F3D56"/>
<path d="M224.654 204.574H221.03C219.931 204.574 219.04 205.557 219.04 206.768C219.04 207.98 219.931 208.962 221.03 208.962H224.654C225.753 208.962 226.643 207.98 226.643 206.768C226.643 205.557 225.753 204.574 224.654 204.574Z" fill="#E6E6E6"/>
<path d="M266.101 204.574H262.477C261.378 204.574 260.487 205.557 260.487 206.768C260.487 207.98 261.378 208.962 262.477 208.962H266.101C267.199 208.962 268.09 207.98 268.09 206.768C268.09 205.557 267.199 204.574 266.101 204.574Z" fill="#E6E6E6"/>
<path d="M277.844 204.574H274.22C273.121 204.574 272.231 205.557 272.231 206.768C272.231 207.98 273.121 208.962 274.22 208.962H277.844C278.943 208.962 279.834 207.98 279.834 206.768C279.834 205.557 278.943 204.574 277.844 204.574Z" fill="#E6E6E6"/>
<path d="M254.827 204.209H232.304C231.205 204.209 230.314 205.191 230.314 206.403C230.314 207.614 231.205 208.596 232.304 208.596H254.827C255.926 208.596 256.816 207.614 256.816 206.403C256.816 205.191 255.926 204.209 254.827 204.209Z" fill="#E6E6E6"/>
<path d="M310.09 204.209H287.566C286.467 204.209 285.577 205.191 285.577 206.403C285.577 207.614 286.467 208.596 287.566 208.596H310.09C311.188 208.596 312.079 207.614 312.079 206.403C312.079 205.191 311.188 204.209 310.09 204.209Z" fill="#E6E6E6"/>
<path d="M235.706 214.478H232.082C230.984 214.478 230.093 215.46 230.093 216.672C230.093 217.883 230.984 218.866 232.082 218.866H235.706C236.805 218.866 237.696 217.883 237.696 216.672C237.696 215.46 236.805 214.478 235.706 214.478Z" fill="#E6E6E6"/>
<path d="M277.153 214.478H273.529C272.431 214.478 271.54 215.46 271.54 216.672C271.54 217.883 272.431 218.866 273.529 218.866H277.153C278.252 218.866 279.143 217.883 279.143 216.672C279.143 215.46 278.252 214.478 277.153 214.478Z" fill="#E6E6E6"/>
<path d="M288.897 214.478H285.273C284.174 214.478 283.283 215.46 283.283 216.672C283.283 217.883 284.174 218.866 285.273 218.866H288.897C289.995 218.866 290.886 217.883 290.886 216.672C290.886 215.46 289.995 214.478 288.897 214.478Z" fill="#E6E6E6"/>
<path d="M265.88 214.112H243.356C242.257 214.112 241.367 215.094 241.367 216.306C241.367 217.517 242.257 218.5 243.356 218.5H265.88C266.978 218.5 267.869 217.517 267.869 216.306C267.869 215.094 266.978 214.112 265.88 214.112Z" fill="#E6E6E6"/>
<path d="M321.142 214.112H298.619C297.52 214.112 296.629 215.094 296.629 216.306C296.629 217.517 297.52 218.5 298.619 218.5H321.142C322.241 218.5 323.132 217.517 323.132 216.306C323.132 215.094 322.241 214.112 321.142 214.112Z" fill="#E6E6E6"/>
<path d="M246.759 224.381H243.135C242.036 224.381 241.146 225.363 241.146 226.575C241.146 227.787 242.036 228.769 243.135 228.769H246.759C247.858 228.769 248.748 227.787 248.748 226.575C248.748 225.363 247.858 224.381 246.759 224.381Z" fill="#E6E6E6"/>
<path d="M288.206 224.381H284.582C283.483 224.381 282.593 225.363 282.593 226.575C282.593 227.787 283.483 228.769 284.582 228.769H288.206C289.305 228.769 290.195 227.787 290.195 226.575C290.195 225.363 289.305 224.381 288.206 224.381Z" fill="#E6E6E6"/>
<path d="M299.949 224.381H296.325C295.226 224.381 294.336 225.363 294.336 226.575C294.336 227.787 295.226 228.769 296.325 228.769H299.949C301.048 228.769 301.939 227.787 301.939 226.575C301.939 225.363 301.048 224.381 299.949 224.381Z" fill="#E6E6E6"/>
<path d="M276.932 224.015H254.409C253.31 224.015 252.419 224.997 252.419 226.209C252.419 227.421 253.31 228.403 254.409 228.403H276.932C278.031 228.403 278.922 227.421 278.922 226.209C278.922 224.997 278.031 224.015 276.932 224.015Z" fill="#E6E6E6"/>
<path d="M332.195 224.015H309.671C308.573 224.015 307.682 224.997 307.682 226.209C307.682 227.421 308.573 228.403 309.671 228.403H332.195C333.294 228.403 334.184 227.421 334.184 226.209C334.184 224.997 333.294 224.015 332.195 224.015Z" fill="#E6E6E6"/>
<path d="M257.811 234.284H254.187C253.089 234.284 252.198 235.267 252.198 236.478C252.198 237.69 253.089 238.672 254.187 238.672H257.811C258.91 238.672 259.801 237.69 259.801 236.478C259.801 235.267 258.91 234.284 257.811 234.284Z" fill="#E6E6E6"/>
<path d="M299.258 234.284H295.634C294.536 234.284 293.645 235.267 293.645 236.478C293.645 237.69 294.536 238.672 295.634 238.672H299.258C300.357 238.672 301.248 237.69 301.248 236.478C301.248 235.267 300.357 234.284 299.258 234.284Z" fill="#E6E6E6"/>
<path d="M311.002 234.284H307.378C306.279 234.284 305.388 235.267 305.388 236.478C305.388 237.69 306.279 238.672 307.378 238.672H311.002C312.1 238.672 312.991 237.69 312.991 236.478C312.991 235.267 312.1 234.284 311.002 234.284Z" fill="#E6E6E6"/>
<path d="M287.985 233.918H265.461C264.362 233.918 263.472 234.901 263.472 236.112C263.472 237.324 264.362 238.306 265.461 238.306H287.985C289.083 238.306 289.974 237.324 289.974 236.112C289.974 234.901 289.083 233.918 287.985 233.918Z" fill="#E6E6E6"/>
<path d="M266.101 273.664H262.477C261.378 273.664 260.487 274.646 260.487 275.858C260.487 277.07 261.378 278.052 262.477 278.052H266.101C267.199 278.052 268.09 277.07 268.09 275.858C268.09 274.646 267.199 273.664 266.101 273.664Z" fill="#E6E6E6"/>
<path d="M277.844 273.664H274.22C273.121 273.664 272.231 274.646 272.231 275.858C272.231 277.07 273.121 278.052 274.22 278.052H277.844C278.943 278.052 279.834 277.07 279.834 275.858C279.834 274.646 278.943 273.664 277.844 273.664Z" fill="#E6E6E6"/>
<path d="M310.09 274.03H287.566C286.467 274.03 285.577 275.012 285.577 276.224C285.577 277.435 286.467 278.418 287.566 278.418H310.09C311.188 278.418 312.079 277.435 312.079 276.224C312.079 275.012 311.188 274.03 310.09 274.03Z" fill="#E6E6E6"/>
<path d="M224.654 273.664H221.03C219.931 273.664 219.04 274.646 219.04 275.858C219.04 277.07 219.931 278.052 221.03 278.052H224.654C225.753 278.052 226.643 277.07 226.643 275.858C226.643 274.646 225.753 273.664 224.654 273.664Z" fill="#E6E6E6"/>
<path d="M254.827 274.03H232.304C231.205 274.03 230.314 275.012 230.314 276.224C230.314 277.435 231.205 278.418 232.304 278.418H254.827C255.926 278.418 256.816 277.435 256.816 276.224C256.816 275.012 255.926 274.03 254.827 274.03Z" fill="#E6E6E6"/>
<path d="M235.706 263.761H232.082C230.984 263.761 230.093 264.743 230.093 265.955C230.093 267.166 230.984 268.149 232.082 268.149H235.706C236.805 268.149 237.696 267.166 237.696 265.955C237.696 264.743 236.805 263.761 235.706 263.761Z" fill="#E6E6E6"/>
<path d="M277.153 263.761H273.529C272.431 263.761 271.54 264.743 271.54 265.955C271.54 267.166 272.431 268.149 273.529 268.149H277.153C278.252 268.149 279.143 267.166 279.143 265.955C279.143 264.743 278.252 263.761 277.153 263.761Z" fill="#E6E6E6"/>
<path d="M288.897 263.761H285.273C284.174 263.761 283.283 264.743 283.283 265.955C283.283 267.166 284.174 268.149 285.273 268.149H288.897C289.995 268.149 290.886 267.166 290.886 265.955C290.886 264.743 289.995 263.761 288.897 263.761Z" fill="#E6E6E6"/>
<path d="M265.88 264.126H243.356C242.257 264.126 241.367 265.109 241.367 266.32C241.367 267.532 242.257 268.514 243.356 268.514H265.88C266.978 268.514 267.869 267.532 267.869 266.32C267.869 265.109 266.978 264.126 265.88 264.126Z" fill="#E6E6E6"/>
<path d="M246.759 253.857H243.135C242.036 253.857 241.146 254.84 241.146 256.051C241.146 257.263 242.036 258.245 243.135 258.245H246.759C247.858 258.245 248.748 257.263 248.748 256.051C248.748 254.84 247.858 253.857 246.759 253.857Z" fill="#E6E6E6"/>
<path d="M288.206 253.857H284.582C283.483 253.857 282.593 254.84 282.593 256.051C282.593 257.263 283.483 258.245 284.582 258.245H288.206C289.305 258.245 290.195 257.263 290.195 256.051C290.195 254.84 289.305 253.857 288.206 253.857Z" fill="#E6E6E6"/>
<path d="M299.949 253.857H296.325C295.226 253.857 294.336 254.84 294.336 256.051C294.336 257.263 295.226 258.245 296.325 258.245H299.949C301.048 258.245 301.939 257.263 301.939 256.051C301.939 254.84 301.048 253.857 299.949 253.857Z" fill="#E6E6E6"/>
<path d="M276.932 254.223H254.409C253.31 254.223 252.419 255.205 252.419 256.417C252.419 257.629 253.31 258.611 254.409 258.611H276.932C278.031 258.611 278.922 257.629 278.922 256.417C278.922 255.205 278.031 254.223 276.932 254.223Z" fill="#E6E6E6"/>
<path d="M257.811 243.954H254.187C253.089 243.954 252.198 244.936 252.198 246.148C252.198 247.36 253.089 248.342 254.187 248.342H257.811C258.91 248.342 259.801 247.36 259.801 246.148C259.801 244.936 258.91 243.954 257.811 243.954Z" fill="#E6E6E6"/>
<path d="M299.258 243.954H295.634C294.536 243.954 293.645 244.936 293.645 246.148C293.645 247.36 294.536 248.342 295.634 248.342H299.258C300.357 248.342 301.248 247.36 301.248 246.148C301.248 244.936 300.357 243.954 299.258 243.954Z" fill="#E6E6E6"/>
<path d="M311.002 243.954H307.378C306.279 243.954 305.388 244.936 305.388 246.148C305.388 247.36 306.279 248.342 307.378 248.342H311.002C312.1 248.342 312.991 247.36 312.991 246.148C312.991 244.936 312.1 243.954 311.002 243.954Z" fill="#E6E6E6"/>
<path d="M287.985 244.32H265.461C264.362 244.32 263.472 245.302 263.472 246.514C263.472 247.725 264.362 248.708 265.461 248.708H287.985C289.083 248.708 289.974 247.725 289.974 246.514C289.974 245.302 289.083 244.32 287.985 244.32Z" fill="#E6E6E6"/>
<path d="M242.213 415.902C242.061 415.986 241.909 416.07 241.757 416.146C240.797 416.672 239.83 417.19 238.856 417.7C235.941 419.231 232.989 420.686 230 422.065C222.136 425.693 214.067 428.754 205.844 431.23C204.462 421.73 203.122 399.326 201.837 382.848C201.595 379.748 201.353 376.861 201.112 374.309C200.882 370.958 200.446 367.629 199.806 364.344C199.744 364.087 199.653 363.839 199.537 363.605C199.668 364.923 199.806 368.854 199.937 374.309C200.006 376.861 200.069 379.748 200.138 382.848C200.462 398.709 200.801 420.29 201.139 432.578C200.179 432.837 199.212 433.096 198.245 433.34C197.637 433.5 197.022 433.652 196.407 433.797C195.661 433.98 194.915 434.163 194.169 434.33C193.389 434.513 192.608 434.688 191.828 434.856C179.072 437.619 166.102 439.007 153.102 439C152.239 439 151.382 438.992 150.519 438.985C150.256 438.985 149.994 438.977 149.724 438.969C148.964 438.954 148.177 438.939 147.376 438.916C132.013 438.448 116.752 436.022 101.894 431.687L102.495 382.848L102.599 374.309L102.641 371.071C102.298 372.112 102.094 373.203 102.033 374.309C101.791 376.388 101.542 379.336 101.294 382.848C100.347 396.378 99.3731 418.203 98.3646 430.62C86.4209 426.872 77.6895 423.452 66.7751 417.434C66.3537 417.205 65.9254 416.969 65.504 416.733C65.58 416.146 65.6629 415.56 65.7389 414.958C66.9754 405.481 65.5179 393.148 66.8856 382.848C67.9287 374.903 69.0063 367.27 70.0908 360.794C71.4033 353.001 72.7365 346.876 74.0559 343.898C75.5756 340.462 77.0954 337.08 78.5668 333.842C79.2023 332.448 79.8263 331.079 80.4388 329.736C80.7703 329.012 81.1019 328.296 81.4266 327.595C82.9049 324.403 84.3002 321.455 85.5782 318.842C86.4762 317.006 87.3052 315.346 88.065 313.891C88.9561 312.177 89.7436 310.76 90.393 309.686C95.1891 301.668 102.325 295.699 110.619 292.766L110.826 292.705L111.027 292.797L111.255 292.911L124.421 287.601L130.299 271.992L160.494 269.943L165.371 274.034L167.864 276.129L170.524 278.361L175.415 282.467L176.803 282.939L178.868 283.64L192.995 288.424L193.14 288.355L193.347 288.416C200.894 291.081 207.501 296.273 212.247 303.271C212.717 303.942 213.152 304.635 213.573 305.336C214.72 307.21 216.267 310.173 218.091 313.891C218.844 315.422 219.638 317.083 220.474 318.842C220.979 319.901 225.331 334.878 229.565 350.175C233.523 364.497 237.378 379.1 237.882 382.848C237.972 383.541 238.069 384.242 238.158 384.936C238.732 389.27 239.298 393.635 239.844 397.894C240.652 404.209 241.44 410.303 242.193 415.75C242.199 415.803 242.206 415.849 242.213 415.902Z" fill="#3F3D56"/>
<path opacity="0.2" d="M210.215 360.759L204.345 335.778L199.162 357.334L210.215 360.759Z" fill="black"/>
<path d="M11.4346 360.47C11.7389 361.447 12.3163 362.292 13.0837 362.885C13.851 363.478 14.769 363.787 15.7058 363.769L34.0059 363.249C34.9495 363.229 35.8619 362.873 36.6066 362.233C37.3512 361.594 37.8883 360.706 38.1374 359.702L40.727 329.164C41.6458 329.623 42.6461 329.849 43.6545 329.827C45.424 329.778 47.1033 328.956 48.3231 327.541C49.5429 326.127 50.2033 324.236 50.1588 322.285C50.1144 320.333 49.3689 318.481 48.0863 317.136C46.8037 315.791 45.089 315.063 43.3196 315.112C42.9165 315.11 42.5144 315.156 42.1202 315.249C41.6916 314.738 41.1705 314.331 40.5906 314.055C40.0107 313.779 39.3849 313.64 38.7533 313.647L10.6036 314.449C10.37 314.458 10.1377 314.49 9.90919 314.544C9.29186 314.671 8.70636 314.942 8.19207 315.34C7.67779 315.737 7.24665 316.251 6.92769 316.848C6.60874 317.444 6.40937 318.109 6.34299 318.798C6.27661 319.486 6.34477 320.183 6.54288 320.84L11.4346 360.47ZM41.2581 327.09L43.1009 319.813C43.3105 318.972 43.3153 318.086 43.1149 317.242C43.2043 317.242 43.2832 317.195 43.3726 317.195C44.6362 317.166 45.8585 317.691 46.7716 318.655C47.6847 319.618 48.2141 320.942 48.2437 322.335C48.2733 323.728 47.8007 325.078 46.9294 326.087C46.0582 327.097 44.8595 327.684 43.5962 327.721C42.7793 327.749 41.971 327.531 41.2581 327.09Z" fill="#2F2E41"/>
<path d="M9.90918 314.544C10.5089 318.326 17.2516 320.984 25.3591 320.522C32.8146 320.143 38.9106 317.256 40.0274 313.835C39.6141 313.7 39.1842 313.637 38.7533 313.647L10.6035 314.449C10.37 314.458 10.1377 314.49 9.90918 314.544Z" fill="#3F3D56"/>
<path d="M26.8451 343.689C26.8822 343.678 26.9174 343.661 26.9494 343.638L30.9235 340.769C30.9716 340.735 31.0111 340.688 31.0384 340.632C31.0657 340.576 31.08 340.514 31.0801 340.451C31.0801 340.388 31.0658 340.325 31.0385 340.27C31.0112 340.214 30.9718 340.167 30.9238 340.132L26.793 337.149C26.7551 337.121 26.7126 337.102 26.668 337.092C26.6233 337.083 26.5775 337.083 26.5329 337.093C26.4884 337.103 26.4461 337.123 26.4085 337.151C26.3709 337.179 26.3387 337.215 26.3138 337.257C26.2889 337.299 26.2717 337.346 26.2633 337.396C26.2549 337.445 26.2554 337.495 26.2647 337.544C26.2741 337.593 26.2921 337.64 26.3178 337.681C26.3435 337.723 26.3764 337.758 26.4145 337.785L30.1039 340.45L26.5713 343.001C26.5029 343.05 26.4525 343.124 26.4293 343.211C26.406 343.297 26.4112 343.39 26.444 343.472C26.4769 343.555 26.5352 343.622 26.6086 343.662C26.6821 343.701 26.7659 343.711 26.8451 343.689Z" fill="#5A8AE4"/>
<path d="M20.568 344.008C20.6347 343.989 20.6949 343.949 20.7407 343.892C20.7866 343.836 20.8161 343.765 20.8254 343.69C20.8348 343.615 20.8236 343.539 20.7932 343.471C20.7629 343.402 20.7148 343.346 20.6551 343.308L16.9919 340.992L20.5325 338.092C20.5689 338.062 20.5996 338.024 20.6229 337.982C20.6462 337.939 20.6615 337.891 20.6681 337.842C20.6748 337.792 20.6725 337.742 20.6614 337.693C20.6504 337.645 20.6308 337.599 20.6037 337.559C20.5767 337.519 20.5428 337.485 20.5039 337.46C20.465 337.434 20.4219 337.417 20.377 337.41C20.3322 337.402 20.2865 337.405 20.2425 337.417C20.1986 337.429 20.1572 337.451 20.1208 337.481L16.1567 340.728C16.1106 340.766 16.0738 340.815 16.0495 340.873C16.0253 340.93 16.0143 340.993 16.0177 341.056C16.0211 341.119 16.0386 341.18 16.0688 341.234C16.099 341.288 16.1409 341.332 16.1907 341.364L20.3114 343.969C20.3891 344.018 20.4812 344.032 20.568 344.008Z" fill="#5A8AE4"/>
<path d="M26.4498 346.202C26.4832 346.193 26.5151 346.178 26.5444 346.158C26.5832 346.132 26.617 346.098 26.6438 346.058C26.6706 346.018 26.6899 345.972 26.7007 345.923C26.7114 345.875 26.7134 345.824 26.7064 345.775C26.6995 345.725 26.6837 345.678 26.6601 345.635L21.0265 335.421C20.9786 335.335 20.9018 335.273 20.813 335.25C20.7241 335.226 20.6304 335.242 20.5524 335.295C20.4743 335.347 20.4183 335.432 20.3965 335.53C20.3748 335.627 20.3891 335.731 20.4363 335.817L26.0699 346.032C26.1084 346.101 26.166 346.155 26.2344 346.186C26.3027 346.217 26.3782 346.222 26.4498 346.202Z" fill="#5A8AE4"/>
<path d="M542.868 416.731C542.447 416.967 542.018 417.203 541.597 417.432C530.683 423.45 521.951 426.871 510.007 430.619C508.999 418.201 508.025 396.376 507.078 382.847C506.83 379.335 506.581 376.387 506.339 374.307C506.278 373.201 506.074 372.111 505.731 371.069L505.773 374.307L505.877 382.847L506.478 431.685C491.62 436.02 476.359 438.446 460.996 438.914C460.195 438.937 459.408 438.953 458.648 438.968C458.378 438.975 458.116 438.983 457.853 438.983C456.99 438.991 456.133 438.998 455.27 438.998C439.081 439.011 422.95 436.855 407.233 432.576C407.571 420.289 407.91 398.707 408.234 382.847C408.303 379.746 408.366 376.859 408.435 374.307C408.566 368.852 408.704 364.922 408.835 363.604C408.719 363.837 408.628 364.085 408.566 364.343C407.926 367.627 407.49 370.957 407.26 374.307C407.019 376.859 406.777 379.746 406.535 382.847C405.25 399.324 403.91 421.728 402.528 431.228C394.305 428.752 386.236 425.691 378.372 422.064C374.227 420.159 370.156 418.105 366.159 415.901C366.919 410.416 367.713 404.268 368.528 397.892C369.164 392.948 369.82 387.867 370.49 382.847C371.526 375.091 406.728 291.348 415.025 288.415L415.232 288.354L415.377 288.422L429.503 283.638L431.569 282.937L432.957 282.465L437.848 278.359L440.508 276.127L443.001 274.032L447.878 269.941L478.072 271.99L483.951 287.6L497.117 292.909L497.345 292.795L497.546 292.704L497.753 292.765C506.047 295.697 513.183 301.666 517.979 309.684C518.628 310.758 519.416 312.175 520.307 313.889C521.067 315.344 521.896 317.005 522.794 318.841C524.072 321.454 525.467 324.402 526.945 327.594C527.27 328.295 527.602 329.011 527.933 329.734C528.548 331.075 529.172 332.444 529.805 333.84C531.277 337.078 532.796 340.46 534.316 343.896C535.635 346.875 536.969 352.999 538.281 360.793C539.366 367.268 540.443 374.901 541.486 382.846C542.854 393.146 541.397 405.479 542.633 414.956C542.709 415.558 542.792 416.145 542.868 416.731Z" fill="#3F3D56"/>
<path d="M454.313 264.338C473.708 264.338 489.43 246.999 489.43 225.611C489.43 204.223 473.708 186.884 454.313 186.884C434.918 186.884 419.196 204.223 419.196 225.611C419.196 246.999 434.918 264.338 454.313 264.338Z" fill="#FFB6B6"/>
<path opacity="0.2" d="M398.156 360.759L404.025 335.778L409.208 357.334L398.156 360.759Z" fill="black"/>
<path d="M554.349 344.483C552.249 376.387 554.425 390.434 542.833 416.739C532.287 422.431 521.301 427.076 510.007 430.619C508.833 430.984 507.656 431.34 506.477 431.685C491.62 436.02 476.359 438.446 460.996 438.915C460.195 438.937 459.407 438.953 458.648 438.968C458.378 438.975 458.116 438.983 457.853 438.983C456.99 438.991 456.133 438.998 455.27 438.998C439.081 439.012 422.95 436.855 407.233 432.576C405.658 432.15 404.09 431.7 402.528 431.228C394.305 428.752 386.236 425.691 378.372 422.064C374.227 420.159 370.156 418.105 366.159 415.901C365.254 415.398 364.349 414.895 363.458 414.377C358.878 405.495 356.274 394.692 356.218 381.711C359.389 359.345 547.344 325.194 554.349 344.483Z" fill="#2F2E41"/>
<path opacity="0.2" d="M554.343 349.946C554.451 347.971 554.57 345.931 554.71 343.806C547.706 324.518 359.751 358.669 356.58 381.035C356.589 383.086 356.668 385.076 356.802 387.019C364.48 364.943 543.04 332.485 554.343 349.946Z" fill="black"/>
<path d="M351.544 345.987L366.972 337.481L354.115 299.2L350.727 279.895C350.287 277.386 349.258 275.05 347.742 273.118C346.226 271.186 344.277 269.726 342.09 268.885C339.902 268.044 337.553 267.851 335.277 268.325C333 268.799 330.877 269.923 329.118 271.585C326.511 274.049 324.875 277.533 324.554 281.302C324.232 285.071 325.252 288.831 327.396 291.787L339.973 309.124L351.544 345.987Z" fill="#FFB6B6"/>
<path d="M366.972 330.392L346.401 341.734L362.012 395.676C363.133 399.549 365.143 403.038 367.846 405.803C370.549 408.568 373.854 410.516 377.441 411.457C381.864 412.619 386.507 412.196 390.697 410.252C394.888 408.307 398.407 404.941 400.746 400.642L442.142 322.396C445.075 317.004 445.981 310.561 444.665 304.443C443.349 298.325 439.915 293.016 435.099 289.652C432.508 287.843 429.601 286.655 426.566 286.167C423.532 285.678 420.438 285.9 417.487 286.817C414.535 287.735 411.792 289.327 409.435 291.491C407.079 293.655 405.161 296.342 403.809 299.376L378.543 358.748L366.972 330.392Z" fill="#3F3D56"/>
<path d="M145.224 261.666C166.564 261.666 183.863 242.588 183.863 219.055C183.863 195.521 166.564 176.444 145.224 176.444C123.885 176.444 106.585 195.521 106.585 219.055C106.585 242.588 123.885 261.666 145.224 261.666Z" fill="#A0616A"/>
<path d="M107.049 189.691C110.191 185.021 114.707 181.701 118.16 177.308C120.056 174.898 121.629 172.166 123.76 170.008C127.718 165.999 133.254 164.356 138.626 164.152C144.512 163.985 150.352 165.349 155.672 168.133C160.992 170.918 165.643 175.044 169.249 180.179C172.057 178.363 174.864 176.548 177.672 174.732C178.781 177.952 179.89 181.172 181 184.392C181.91 183.519 183.071 183.03 184.277 183.011C185.483 182.993 186.656 183.446 187.589 184.29C188.521 185.134 189.152 186.314 189.37 187.623C189.588 188.931 189.379 190.282 188.78 191.437C189.449 189.16 192.51 188.677 194.198 190.181C195.886 191.685 196.338 194.362 196.062 196.735C195.717 199.34 194.673 201.771 193.064 203.715C191.456 205.66 189.357 207.03 187.037 207.649C183.374 208.549 179.109 207.603 176.177 210.187C173.825 212.259 173.116 216.032 170.716 218.035C167.76 220.503 163.581 219.362 159.906 219.907C153.476 220.862 148.385 228.114 149.157 235.218C148.576 232.976 147.964 230.67 146.644 228.849C145.324 227.028 143.1 225.797 141.075 226.466C137.727 227.573 137.18 232.605 137.991 236.353C140.142 246.294 148.297 262.364 148.297 262.364C137.709 266.97 125.094 262.614 116.925 253.874C108.755 245.134 104.501 232.758 102.647 220.374C101.076 209.872 101.298 198.239 107.049 189.691Z" fill="#2F2E41"/>
<path d="M498.321 246.96C505.672 228.373 501.508 211.27 492.546 202.197V202.189C489.023 193.482 484.34 186.763 478.979 185.186C476.389 183.35 473.874 181.194 471.084 180.097C469.784 179.56 468.399 179.32 467.012 179.389C465.625 179.458 464.266 179.837 463.015 180.501L461.592 180.082C460.383 176.677 458.967 176.608 457.392 178.848C451.327 175.732 445.863 174.338 441 174.338C425.14 174.338 415.759 189.147 413.272 207.049L426.528 210.942L431.136 202.844L429.008 211.673L436.323 213.814C447.459 229.804 434.134 266.69 417.244 287.213C421.264 285.986 425.269 284.95 429.257 284.105L443.749 260.672L434.769 282.002C439.432 281.248 445.38 281.972 451.88 283.427C454.07 280.273 455.223 276.068 454.09 272.32C455.943 276.273 457.22 280.522 457.876 284.912C471.595 288.607 490.308 290.504 500.394 291.905C508.542 288.972 508.564 255.842 498.321 246.96Z" fill="#2F2E41"/>
<path d="M503.104 183.737C508.488 197.033 497.624 202.752 487.671 202.59C478.677 202.444 471.034 195.477 470.575 185.571C470.354 180.814 471.857 176.155 474.751 172.619C477.645 169.084 481.694 166.961 486.008 166.718C494.991 166.211 499.436 174.68 503.104 183.737Z" fill="#2F2E41"/>
<path d="M253.314 400.177L244.445 383.862L273.935 359.189L286.197 344.913C287.79 343.058 289.796 341.697 292.016 340.965C294.235 340.233 296.59 340.157 298.845 340.743C301.099 341.329 303.175 342.558 304.864 344.306C306.554 346.054 307.797 348.261 308.471 350.705C309.469 354.327 309.153 358.235 307.588 361.605C306.023 364.974 303.332 367.541 300.083 368.764L281.03 375.938L253.314 400.177Z" fill="#A0616A"/>
<path d="M259.725 399.638L245.916 412.33L242.193 415.75L241.757 416.146C240.797 416.672 239.83 417.19 238.856 417.7C235.941 419.232 232.989 420.687 230 422.065C222.136 425.693 214.067 428.754 205.844 431.23C204.282 431.702 202.714 432.151 201.139 432.578C200.179 432.837 199.212 433.096 198.245 433.34C197.637 433.5 197.022 433.652 196.407 433.797C195.661 433.98 194.915 434.163 194.169 434.33C193.389 434.513 192.608 434.688 191.828 434.856C189.727 432.652 188.055 430 186.913 427.061C185.77 424.123 185.181 420.959 185.182 417.761C185.182 417.556 185.182 417.342 185.189 417.129L187.407 354.411L188.388 326.613C188.539 320.326 190.913 314.355 195.004 309.973C199.094 305.592 204.576 303.148 210.278 303.165C210.942 303.165 211.598 303.203 212.247 303.271C212.717 303.942 213.152 304.635 213.573 305.336C214.72 307.21 216.268 310.173 218.091 313.891C218.844 315.422 219.639 317.083 220.474 318.842C220.979 319.901 225.331 334.878 229.565 350.175L227.7 366.15L224.329 394.946L238.158 384.936L247.899 377.881L249.052 380.007L252.057 385.537L257.86 396.203L259.725 399.638Z" fill="#3F3D56"/>
<path d="M252.154 381.713C252.147 383.008 252.119 384.28 252.057 385.537C251.913 389.005 251.548 392.456 250.966 395.867C250.012 401.595 248.311 407.14 245.916 412.33C245.598 413.023 245.26 413.709 244.914 414.379C244.023 414.897 243.118 415.4 242.213 415.902C242.061 415.986 241.909 416.07 241.757 416.146C237.91 418.256 233.991 420.229 230 422.065C222.136 425.693 214.067 428.754 205.844 431.23C204.282 431.702 202.714 432.152 201.139 432.578C198.065 433.416 194.961 434.175 191.828 434.856C179.072 437.619 166.102 439.007 153.102 439C152.239 439 151.382 438.992 150.519 438.985C150.256 438.985 149.994 438.977 149.724 438.97C148.964 438.954 148.177 438.939 147.376 438.916C132.013 438.448 116.752 436.022 101.894 431.687C100.713 431.344 99.5366 430.989 98.3646 430.62C87.0705 427.078 76.085 422.433 65.5386 416.74C53.9472 390.436 56.1232 376.388 54.0232 344.484C58.3337 332.608 131.26 340.995 187.407 354.411C202.645 358.052 216.641 362.067 227.7 366.15C239.126 370.363 247.408 374.644 250.655 378.666C251.413 379.499 251.934 380.558 252.154 381.713Z" fill="#2F2E41"/>
<path opacity="0.2" d="M54.0273 349.946C53.92 347.971 53.8001 345.931 53.6603 343.806C60.6648 324.518 248.62 358.669 251.791 381.035C251.782 383.086 251.703 385.076 251.569 387.019C243.89 364.943 65.3304 332.485 54.0273 349.946Z" fill="black"/>
</g>
<defs>
<clipPath id="clip0_288_583">
<rect width="608" height="439" fill="white" transform="translate(0.5)"/>
</clipPath>
</defs>
</svg>
